<?xml version="1.0" encoding="UTF-8"?>
<svg xmlns="http://www.w3.org/2000/svg" xmlns:xlink="http://www.w3.org/1999/xlink" viewBox="0 0 297.44 314.69">
  <defs>
    <style>
      .cls-1 {
        fill: url(#linear-gradient-5);
        stroke: url(#linear-gradient-6);
      }

      .cls-2 {
        fill: url(#linear-gradient-7);
        stroke: url(#linear-gradient-8);
      }

      .cls-3 {
        fill: url(#linear-gradient-3);
        stroke: url(#linear-gradient-4);
      }

      .cls-4 {
        mix-blend-mode: multiply;
        opacity: .45;
      }

      .cls-5 {
        fill: #2a283d;
        stroke: #2a283d;
      }

      .cls-6 {
        fill: url(#linear-gradient);
        stroke: url(#linear-gradient-2);
      }

      .cls-7 {
        fill: #1d1d1b;
      }

      .cls-8 {
        fill: url(#Dégradé_sans_nom_180);
      }

      .cls-9 {
        isolation: isolate;
      }

      .cls-10 {
        fill: url(#linear-gradient-9);
        stroke: url(#linear-gradient-10);
      }
    </style>
    <linearGradient id="linear-gradient" x1="240.25" y1="361.44" x2="104.74" y2="225.94" gradientUnits="userSpaceOnUse">
      <stop offset="0" stop-color="#989183"/>
      <stop offset="1" stop-color="#292d3c"/>
    </linearGradient>
    <linearGradient id="linear-gradient-2" x1="240.74" y1="361.93" x2="104.24" y2="225.43" xlink:href="#linear-gradient"/>
    <linearGradient id="linear-gradient-3" x1="262.48" y1="335.64" x2="34.96" y2="204.28" xlink:href="#linear-gradient"/>
    <linearGradient id="linear-gradient-4" x1="262.71" y1="335.77" x2="34.73" y2="204.14" xlink:href="#linear-gradient"/>
    <linearGradient id="linear-gradient-5" x1="216.82" y1="325.43" x2="103.51" y2="212.12" xlink:href="#linear-gradient"/>
    <linearGradient id="linear-gradient-6" x1="217.34" y1="325.88" x2="102.96" y2="211.5" xlink:href="#linear-gradient"/>
    <linearGradient id="linear-gradient-7" x1="241.49" y1="314.96" x2="43.18" y2="200.46" xlink:href="#linear-gradient"/>
    <linearGradient id="linear-gradient-8" x1="241.72" y1="315.1" x2="42.94" y2="200.33" xlink:href="#linear-gradient"/>
    <linearGradient id="linear-gradient-9" x1="131.41" y1=".26" x2="131.41" y2="265.24" xlink:href="#linear-gradient"/>
    <linearGradient id="linear-gradient-10" x1="131.41" y1="-.24" x2="131.41" y2="265.75" xlink:href="#linear-gradient"/>
    <linearGradient id="Dégradé_sans_nom_180" data-name="Dégradé sans nom 180" x1="189.79" y1="69.62" x2="84.59" y2="251.83" gradientUnits="userSpaceOnUse">
      <stop offset="0" stop-color="#989183"/>
      <stop offset=".15" stop-color="#918a7e"/>
      <stop offset=".38" stop-color="#7e7972"/>
      <stop offset=".64" stop-color="#5f5d5e"/>
      <stop offset=".93" stop-color="#343743"/>
      <stop offset="1" stop-color="#292d3c"/>
    </linearGradient>
  </defs>
  <g class="cls-9">
    <g id="Calque_1" data-name="Calque 1">
      <g>
        <g>
          <g>
            <g>
              <polygon class="cls-6" points="296.74 304.94 51.22 314.42 50.25 280.42 296.74 275.93 296.74 304.94"/>
              <polygon class="cls-3" points=".19 264.49 50.75 284.67 297.24 275.42 296.92 275.28 251.1 256.08 .19 264.49"/>
              <polygon class="cls-5" points="50.25 314.22 50.25 285.01 .69 265.23 .69 294.65 50.25 314.22"/>
            </g>
            <polygon class="cls-1" points="272.28 269.96 51.1 279.32 47.53 268.09 272.28 261.29 272.28 269.96"/>
            <polygon class="cls-2" points="11.89 254.65 50.75 269.06 272.78 260.77 272.51 260.69 226.64 246.02 11.89 254.65"/>
            <polygon class="cls-5" points="50.25 279.12 50.25 269.4 12.39 255.37 12.39 264.91 50.25 279.12"/>
          </g>
          <path class="cls-10" d="M62.07,265.24l-31.69-10.91,7.91-200.38s.15-32.16,34.87-43.59c0,0,26.71-9.39,54.12-10.08,0,0,53.26-1.5,84.46,24.52,7.06,5.45,11.7,19.46,14.32,43.79.08.77.14,1.55.16,2.32l6.23,188.62-170.38,5.72Z"/>
          <path class="cls-5" d="M126.56.26c-27.41.69-53.4,10.1-53.4,10.1-34.72,11.43-34.87,43.59-34.87,43.59l-7.91,200.38,31.69,10.91h.03l4.16-200.12S64.45,6.02,126.56.26Z"/>
        </g>
        <g>
          <g class="cls-4">
            <path class="cls-7" d="M194.84,215.47c6.58,7.29,16.25,15.33,24.95,10.89.8-.41,1.65.33,1.34,1.17-5.25,14.23-16.37,13.35-16.37,13.35-8.62.18-23.04-4.06-34.38-21.51-9.54-14.34-11.06-32.44-19.31-46.81-5.16-9.02-8.51-10.62-21.65-10.11l-8.05.31c-.54.02-.97.47-.97,1.01v44.24c0,24.06,2.74,31.22,22.43,32.91.58.05,1.02.58,1.02,1.23h0c0,.7-.51,1.29-1.14,1.32l-66.51,2.47c-.65.02-1.17-.54-1.17-1.26h0c0-.66.45-1.24,1.04-1.34,20.41-3.45,22.16-10.42,22.16-34.48v-114.84c0-23.92-2.71-29.83-21.87-31.73-.76-.07-1.33-.76-1.33-1.62h0c0-.93.68-1.71,1.51-1.75l64.22-2.63c18.82-.77,31.45,1.31,41.24,8.12,10.57,7.07,17.53,19.76,17.53,37.36,0,24.51-13.84,40.55-32.57,50.54-.4.21-.62.66-.52,1.1,1.27,5.59,9.98,41.68,28.4,62.07ZM132.77,152.52c13.4-.52,21.91-3.16,28.36-9.46,10.05-8.75,14.18-20.45,14.18-36.01,0-30.84-18.3-41.34-38.15-40.53-7.48.3-11.86,1.63-13.66,3.44-2.32,2.11-3.09,5.02-3.09,12.51v69.58c0,.54.43.95.97.93l11.4-.44Z"/>
          </g>
          <path class="cls-8" d="M193.42,215.52c6.58,7.29,16.25,15.33,24.95,10.89.8-.41,1.65.33,1.34,1.17-5.25,14.23-16.37,13.35-16.37,13.35-8.62.18-23.04-4.06-34.38-21.51-9.54-14.34-11.06-32.43-19.31-46.81-5.16-9.02-8.51-10.62-21.65-10.11l-8.05.31c-.54.02-.97.47-.97,1.01v44.24c0,24.06,2.74,31.21,22.43,32.91.58.05,1.02.58,1.02,1.23h0c0,.7-.51,1.29-1.14,1.32l-66.51,2.47c-.65.02-1.17-.54-1.17-1.26h0c0-.66.45-1.24,1.04-1.34,20.41-3.45,22.16-10.42,22.16-34.48v-114.84c0-23.92-2.71-29.83-21.87-31.73-.76-.07-1.33-.76-1.33-1.62h0c0-.93.68-1.71,1.51-1.75l64.22-2.63c18.82-.77,31.45,1.31,41.24,8.11,10.57,7.07,17.53,19.76,17.53,37.35,0,24.51-13.84,40.54-32.57,50.54-.4.21-.62.66-.52,1.1,1.27,5.59,9.98,41.68,28.4,62.07ZM131.35,152.58c13.4-.52,21.91-3.16,28.36-9.46,10.05-8.75,14.18-20.44,14.18-36.01,0-30.84-18.3-41.34-38.15-40.53-7.48.3-11.86,1.63-13.66,3.44-2.32,2.11-3.09,5.02-3.09,12.51v69.58c0,.54.43.95.97.93l11.4-.44Z"/>
        </g>
      </g>
    </g>
  </g>
</svg>